<svg xmlns="http://www.w3.org/2000/svg" width="15" height="16" viewBox="0 0 15 16" fill="none">
  <path d="M14.6629 4.90714C14.5559 4.80046 14.4287 4.71585 14.2885 4.65823C14.1483 4.6006 13.9979 4.5711 13.8461 4.57143H11.5385V4C11.5385 2.93913 11.113 1.92172 10.3556 1.17157C9.59826 0.421427 8.57106 0 7.5 0C6.42893 0 5.40173 0.421427 4.64438 1.17157C3.88702 1.92172 3.46154 2.93913 3.46154 4V4.57143H1.15385C0.847827 4.57143 0.554342 4.69184 0.337954 4.90616C0.121565 5.12049 0 5.41118 0 5.71429V13.4286C0 14.8214 1.1899 16 2.59615 16H12.4038C13.0841 16.0002 13.7374 15.7368 14.224 15.2661C14.4689 15.0347 14.664 14.7565 14.7973 14.4483C14.9307 14.1402 14.9996 13.8085 15 13.4732V5.71429C15.0005 5.56435 14.9709 5.41582 14.913 5.27727C14.8552 5.13873 14.7701 5.01292 14.6629 4.90714ZM4.61538 4C4.61538 3.24224 4.9193 2.51551 5.46027 1.97969C6.00124 1.44388 6.73495 1.14286 7.5 1.14286C8.26505 1.14286 8.99876 1.44388 9.53973 1.97969C10.0807 2.51551 10.3846 3.24224 10.3846 4V4.57143H4.61538V4ZM11.5385 7.42857C11.5385 8.48944 11.113 9.50685 10.3556 10.257C9.59826 11.0071 8.57106 11.4286 7.5 11.4286C6.42893 11.4286 5.40173 11.0071 4.64438 10.257C3.88702 9.50685 3.46154 8.48944 3.46154 7.42857V6.85714C3.46154 6.70559 3.52232 6.56025 3.63051 6.45308C3.73871 6.34592 3.88545 6.28571 4.03846 6.28571C4.19147 6.28571 4.33821 6.34592 4.44641 6.45308C4.5546 6.56025 4.61538 6.70559 4.61538 6.85714V7.42857C4.61538 8.18633 4.9193 8.91306 5.46027 9.44888C6.00124 9.9847 6.73495 10.2857 7.5 10.2857C8.26505 10.2857 8.99876 9.9847 9.53973 9.44888C10.0807 8.91306 10.3846 8.18633 10.3846 7.42857V6.85714C10.3846 6.70559 10.4454 6.56025 10.5536 6.45308C10.6618 6.34592 10.8085 6.28571 10.9615 6.28571C11.1145 6.28571 11.2613 6.34592 11.3695 6.45308C11.4777 6.56025 11.5385 6.70559 11.5385 6.85714V7.42857Z" fill="#EEEEEE"/>
</svg>