<svg width="30" height="25" viewBox="0 0 30 25" fill="none" xmlns="http://www.w3.org/2000/svg">
<path fill-rule="evenodd" clip-rule="evenodd" d="M29.372 0.731998C29.7741 1.20084 30 1.83663 30 2.49957C30 3.16251 29.7741 3.79831 29.372 4.26715L12.2139 24.268C11.8117 24.7367 11.2662 25 10.6975 25C10.1288 25 9.58336 24.7367 9.18115 24.268L0.602063 14.2676C0.211375 13.796 -0.00480561 13.1645 8.10781e-05 12.509C0.00496777 11.8535 0.230531 11.2264 0.628189 10.7629C1.02585 10.2993 1.56378 10.0364 2.12614 10.0307C2.68849 10.025 3.23026 10.277 3.63477 10.7324L10.6975 18.9653L26.3393 0.731998C26.7415 0.2633 27.287 0 27.8557 0C28.4244 0 28.9698 0.2633 29.372 0.731998Z" fill="#EEEEEE"/>
</svg>
