<svg width="20" height="20" viewBox="0 0 20 20" fill="none" xmlns="http://www.w3.org/2000/svg">
<path d="M19.4607 9.07081C19.685 8.89576 19.8513 8.65157 19.9364 8.37247C20.0216 8.09337 20.0212 7.79335 19.9353 7.51449C19.8495 7.23563 19.6825 6.99191 19.4578 6.81749C19.2332 6.64308 18.962 6.54673 18.6824 6.54195L13.2521 6.32699C13.2254 6.32506 13.1998 6.31508 13.1784 6.29826C13.157 6.28143 13.1407 6.25848 13.1315 6.23216L11.255 0.92155C11.1607 0.651366 10.9895 0.418065 10.7645 0.253232C10.5395 0.0884004 10.2715 0 9.99698 0C9.72243 0 9.45451 0.0884004 9.2295 0.253232C9.00449 0.418065 8.83325 0.651366 8.73897 0.92155L6.86854 6.25113C6.8593 6.27744 6.84299 6.3004 6.82157 6.31722C6.80016 6.33405 6.77457 6.34403 6.74787 6.34596L1.31759 6.56091C1.038 6.5657 0.766843 6.66205 0.542147 6.83646C0.317451 7.01087 0.150483 7.2546 0.0646547 7.53346C-0.0211739 7.81232 -0.0215589 8.11233 0.0635534 8.39144C0.148666 8.67054 0.315008 8.91473 0.539255 9.08977L4.799 12.5986C4.82032 12.6161 4.83626 12.6399 4.84484 12.6669C4.85341 12.6938 4.85426 12.7228 4.84727 12.7503L3.3811 18.1937C3.30512 18.4709 3.31248 18.7659 3.40218 19.0385C3.49188 19.3112 3.65955 19.5482 3.8824 19.7175C4.10525 19.8867 4.37245 19.98 4.64765 19.9845C4.92285 19.989 5.19269 19.9045 5.42047 19.7426L9.92156 16.5815C9.94373 16.5655 9.97004 16.5569 9.99698 16.5569C10.0239 16.5569 10.0502 16.5655 10.0724 16.5815L14.5735 19.7426C14.7982 19.91 15.0671 20 15.3428 20C15.6185 20 15.8874 19.91 16.1121 19.7426C16.335 19.5749 16.5028 19.339 16.5925 19.0673C16.6822 18.7956 16.6893 18.5014 16.6129 18.2253L15.1346 12.7629C15.1268 12.7355 15.1272 12.7062 15.1359 12.6791C15.1445 12.6519 15.1609 12.6282 15.1829 12.6112L19.4607 9.07081ZM13.9701 13.0727L15.4484 18.5351C15.4604 18.5643 15.4625 18.5969 15.4544 18.6275C15.4463 18.6582 15.4284 18.6849 15.4037 18.7034C15.379 18.7219 15.349 18.731 15.3187 18.7291C15.2884 18.7272 15.2596 18.7145 15.2372 18.6931L10.7361 15.5321C10.5153 15.3754 10.2546 15.2917 9.98793 15.2918V1.26927C10.0163 1.26685 10.0446 1.27505 10.0678 1.29241C10.091 1.30976 10.1076 1.33516 10.1146 1.3641L11.9911 6.68103C12.082 6.94308 12.2453 7.17082 12.4602 7.33522C12.6752 7.49961 12.9319 7.59321 13.1978 7.60407L18.6281 7.81902C18.6565 7.81854 18.6843 7.82761 18.7074 7.84491C18.7305 7.8622 18.7477 7.8868 18.7565 7.9151C18.7653 7.9434 18.7651 7.9739 18.7562 8.00212C18.7472 8.03035 18.7298 8.0548 18.7065 8.07191L14.4468 11.5807C14.2335 11.7505 14.074 11.9836 13.989 12.2497C13.904 12.5159 13.8974 12.8026 13.9701 13.0727Z" fill="#FFA113"/>
</svg>
