<svg width="36" height="36" viewBox="0 0 36 36" fill="none" xmlns="http://www.w3.org/2000/svg">
<path d="M19.8504 0C21.8753 0.00539987 22.9031 0.0161996 23.7904 0.041399L24.1396 0.0539987C24.5428 0.0683984 24.9406 0.0863979 25.4211 0.107997C27.3362 0.197995 28.643 0.500389 29.7895 0.944978C30.9775 1.40217 31.9782 2.02135 32.979 3.02033C33.8942 3.92012 34.6024 5.00854 35.0542 6.20985C35.4988 7.35643 35.8012 8.6632 35.8912 10.5802C35.9128 11.0589 35.9308 11.4567 35.9452 11.8617L35.956 12.2109C35.983 13.0965 35.9938 14.1243 35.9974 16.1492L35.9992 17.492V19.8499C36.0036 21.1628 35.9898 22.4757 35.9578 23.7882L35.947 24.1374C35.9326 24.5424 35.9146 24.9402 35.893 25.419C35.803 27.336 35.497 28.6409 35.0542 29.7893C34.6037 30.9913 33.8953 32.08 32.979 32.9788C32.0789 33.8938 30.9906 34.6019 29.7895 35.0542C28.643 35.4988 27.3362 35.8012 25.4211 35.8912C24.994 35.9113 24.5669 35.9293 24.1396 35.9452L23.7904 35.956C22.9031 35.9812 21.8753 35.9938 19.8504 35.9974L18.5077 35.9992H16.1516C14.8381 36.0037 13.5247 35.9899 12.2116 35.9578L11.8624 35.947C11.4352 35.9308 11.008 35.9122 10.5809 35.8912C8.66579 35.8012 7.35906 35.4988 6.21072 35.0542C5.00959 34.6031 3.92163 33.8947 3.02308 32.9788C2.10701 32.0794 1.39817 30.9909 0.94599 29.7893C0.501413 28.6427 0.199028 27.336 0.109033 25.419C0.0889798 24.9919 0.0709806 24.5647 0.0550357 24.1374L0.0460364 23.7882C0.0128678 22.4757 -0.00213304 21.1629 0.00103855 19.8499V16.1492C-0.00398493 14.8363 0.0092158 13.5234 0.0406367 12.2109L0.053236 11.8617C0.0676352 11.4567 0.0856342 11.0589 0.107233 10.5802C0.197229 8.6632 0.499613 7.35823 0.94419 6.20985C1.39617 5.00731 2.10643 3.91855 3.02488 3.02033C3.9232 2.105 5.01044 1.39674 6.21072 0.944978C7.35906 0.500389 8.66399 0.197995 10.5809 0.107997C11.0597 0.0863979 11.4593 0.0683984 11.8624 0.0539987L12.2116 0.0431989C13.5241 0.0112186 14.837 -0.0025824 16.1498 0.00179983L19.8504 0ZM18.0001 8.99979C15.6133 8.99979 13.3242 9.94798 11.6365 11.6358C9.94874 13.3236 9.00058 15.6127 9.00058 17.9996C9.00058 20.3865 9.94874 22.6756 11.6365 24.3634C13.3242 26.0512 15.6133 26.9994 18.0001 26.9994C20.3869 26.9994 22.676 26.0512 24.3638 24.3634C26.0515 22.6756 26.9997 20.3865 26.9997 17.9996C26.9997 15.6127 26.0515 13.3236 24.3638 11.6358C22.676 9.94798 20.3869 8.99979 18.0001 8.99979ZM18.0001 12.5997C18.7092 12.5996 19.4114 12.7391 20.0666 13.0104C20.7217 13.2817 21.3171 13.6793 21.8186 14.1807C22.3201 14.682 22.7179 15.2772 22.9894 15.9323C23.2608 16.5874 23.4006 17.2896 23.4007 17.9987C23.4009 18.7078 23.2613 19.41 22.9901 20.0652C22.7188 20.7204 22.3212 21.3157 21.8198 21.8172C21.3185 22.3187 20.7233 22.7166 20.0682 22.9881C19.4132 23.2595 18.711 23.3993 18.0019 23.3995C16.5698 23.3995 15.1964 22.8305 14.1837 21.8179C13.1711 20.8052 12.6022 19.4317 12.6022 17.9996C12.6022 16.5674 13.1711 15.194 14.1837 14.1813C15.1964 13.1686 16.5698 12.5997 18.0019 12.5997M27.4514 6.29985C26.8547 6.29985 26.2825 6.5369 25.8605 6.95885C25.4386 7.38079 25.2015 7.95308 25.2015 8.5498C25.2015 9.14652 25.4386 9.71881 25.8605 10.1408C26.2825 10.5627 26.8547 10.7997 27.4514 10.7997C28.0481 10.7997 28.6204 10.5627 29.0423 10.1408C29.4643 9.71881 29.7013 9.14652 29.7013 8.5498C29.7013 7.95308 29.4643 7.38079 29.0423 6.95885C28.6204 6.5369 28.0481 6.29985 27.4514 6.29985Z" fill="#EEEEEE" fill-opacity="0.6"/>
</svg>
