<svg width="24" height="19" viewBox="0 0 24 19" fill="none" xmlns="http://www.w3.org/2000/svg">
<path d="M0.840576 8.75208L7.34058 1.75208C8.073 1.01966 9.27808 1.4903 9.27808 2.5401V7.03229H15.9187C16.5681 7.03229 17.0906 7.10266 17.0906 7.75208V10.7521C17.0906 11.4015 16.5681 11.7521 15.9187 11.7521L9.34058 11.7521V15.626C9.34058 16.671 8.07788 17.4845 7.34058 16.7521L0.840576 10.2521C0.386475 9.79309 0.386475 9.21106 0.840576 8.75208ZM13.9656 0.586975V2.5401C13.9656 2.86237 14.2292 3.12604 14.5515 3.12604L18.6531 3.12604C19.5173 3.12604 20.2156 3.82428 20.2156 4.68854V14.0635C20.2156 14.9278 19.5173 15.626 18.6531 15.626H14.5515C14.2292 15.626 13.9656 15.8897 13.9656 16.212V18.1651C13.9656 18.4874 14.2292 18.751 14.5515 18.751H18.6531C21.241 18.751 23.3406 16.6514 23.3406 14.0635V4.68854C23.3406 2.10065 21.241 0.0010376 18.6531 0.0010376H14.5515C14.2292 0.0010376 13.9656 0.264709 13.9656 0.586975Z" fill="#CF0A0A"/>
</svg>
