<svg width="40" height="32" viewBox="0 0 40 32" fill="none" xmlns="http://www.w3.org/2000/svg">
<path d="M39.2599 6.92165L24.9742 0.152405C24.7633 0.0524251 24.5264 0 24.2856 0C24.0449 0 23.808 0.0524251 23.5971 0.152405L9.31133 6.92165C9.08735 7.0279 8.90057 7.18399 8.77049 7.37363C8.6404 7.56328 8.57178 7.77952 8.57178 7.99981C8.57178 8.22009 8.6404 8.43634 8.77049 8.62598C8.90057 8.81563 9.08735 8.97172 9.31133 9.07796L22.8571 15.4964V28.6891L18.5199 26.6337L17.1428 28.7888L23.5971 31.8472C23.8079 31.9474 24.0448 32 24.2856 32C24.5264 32 24.7633 31.9474 24.9742 31.8472L39.2599 25.078C39.484 24.9718 39.6709 24.8157 39.801 24.6261C39.9312 24.4364 39.9999 24.2202 39.9999 23.9998V7.99981C39.9999 7.77948 39.9312 7.56321 39.801 7.37356C39.6709 7.18392 39.484 7.02785 39.2599 6.92165ZM24.2856 2.6361L35.6071 7.99981L24.2856 13.3635L12.9642 7.99981L24.2856 2.6361ZM37.1428 23.2725L25.7142 28.6879V15.4952L37.1428 10.0798V23.2725Z" fill="#EEEEEE"/>
<path d="M11.4286 15.9999H0V13.5383H11.4286V15.9999ZM14.2857 25.8461H2.85715V23.3845H14.2857V25.8461ZM17.1429 20.923H5.71429V18.4614H17.1429V20.923Z" fill="#EEEEEE"/>
</svg>
