<svg width="40" height="32" viewBox="0 0 40 32" fill="none" xmlns="http://www.w3.org/2000/svg">
<path d="M4.14166 12.3077L16.3088 25.0962L10.4498 12.3077H4.14166ZM20 27.1538L26.816 12.3077H13.184L20 27.1538ZM10.5084 9.84615L14.4925 2.46154H9.37569L3.75106 9.84615H10.5084ZM23.6912 25.0962L35.8583 12.3077H29.5502L23.6912 25.0962ZM13.3403 9.84615H26.6597L22.6756 2.46154H17.3244L13.3403 9.84615ZM29.4916 9.84615H36.2489L30.6243 2.46154H25.5075L29.4916 9.84615ZM32.2453 0.5L39.7448 10.3462C39.9271 10.5769 40.0117 10.8429 39.9987 11.1442C39.9857 11.4455 39.875 11.7051 39.6667 11.9231L20.9179 31.6154C20.6835 31.8718 20.3776 32 20 32C19.6224 32 19.3165 31.8718 19.0821 31.6154L0.333312 11.9231C0.124992 11.7051 0.014322 11.4455 0.001302 11.1442C-0.011718 10.8429 0.0729119 10.5769 0.255192 10.3462L7.7547 0.5C7.98906 0.166667 8.32107 0 8.75073 0H31.2493C31.6789 0 32.0109 0.166667 32.2453 0.5Z" fill="#EEEEEE"/>
</svg>
